<?xml version="1.0" encoding="UTF-8" standalone="no"?>
<!DOCTYPE svg PUBLIC "-//W3C//DTD SVG 1.1//EN" "http://www.w3.org/Graphics/SVG/1.1/DTD/svg11.dtd">
<svg width="100%" height="100%" viewBox="0 0 384 513" version="1.1" xmlns="http://www.w3.org/2000/svg" xmlns:xlink="http://www.w3.org/1999/xlink" xml:space="preserve" xmlns:serif="http://www.serif.com/" style="fill-rule:evenodd;clip-rule:evenodd;stroke-linejoin:round;stroke-miterlimit:2;">
    <g transform="matrix(1,0,0,1,-3.49996,0)">
        <g>
            <g transform="matrix(1,0,0,1,3.49996,0)">
                <path d="M172.268,501.67C26.97,291.031 0,269.413 0,192C0,85.961 85.961,0 192,0C298.039,0 384,85.961 384,192C384,269.413 357.03,291.031 211.732,501.67C202.197,515.444 181.802,515.443 172.268,501.67Z" style="fill:url(#_Linear1);fill-rule:nonzero;"/>
            </g>
            <g transform="matrix(2.96561,0,0,2.96561,47.2192,36.7193)">
                <path d="M93.68,48.4L88.05,26.77C87.489,24.331 85.3,22.588 82.797,22.588C82.329,22.588 81.863,22.649 81.41,22.77C78.503,23.635 76.791,26.702 77.58,29.63L81.43,44.49L65.49,44.49C63.192,37.918 56.953,33.489 49.99,33.489C43.027,33.489 36.788,37.918 34.49,44.49L18.57,44.49L22.42,29.63C23.209,26.702 21.497,23.635 18.59,22.77C18.137,22.649 17.671,22.588 17.203,22.588C14.7,22.588 12.511,24.331 11.95,26.77L6.32,48.4C6.197,48.924 6.146,49.462 6.17,50C6.146,50.538 6.197,51.076 6.32,51.6L12,73.23C12.561,75.669 14.75,77.412 17.253,77.412C17.721,77.412 18.187,77.351 18.64,77.23C21.547,76.365 23.259,73.298 22.47,70.37L18.57,55.47L34.51,55.47C36.808,62.042 43.047,66.471 50.01,66.471C56.973,66.471 63.212,62.042 65.51,55.47L81.43,55.47L77.58,70.33C76.791,73.258 78.503,76.325 81.41,77.19C81.863,77.311 82.329,77.372 82.797,77.372C85.3,77.372 87.489,75.629 88.05,73.19L93.68,51.6C93.803,51.076 93.854,50.538 93.83,50C93.854,49.462 93.803,48.924 93.68,48.4ZM44.53,50C44.53,46.999 46.999,44.53 50,44.53C53.001,44.53 55.47,46.999 55.47,50C55.47,53.001 53.001,55.47 50,55.47L49.99,55.47C46.995,55.47 44.53,53.005 44.53,50.01L44.53,50Z" style="fill-rule:nonzero;"/>
            </g>
        </g>
    </g>
    <defs>
        <linearGradient id="_Linear1" x1="0" y1="0" x2="1" y2="0" gradientUnits="userSpaceOnUse" gradientTransform="matrix(79,499,-499,79,119.5,13)"><stop offset="0" style="stop-color:rgb(247,226,0);stop-opacity:1"/><stop offset="1" style="stop-color:rgb(243,203,8);stop-opacity:1"/></linearGradient>
    </defs>
</svg>
